<svg xmlns="http://www.w3.org/2000/svg" viewBox="0 0 900 180" role="img" aria-label="PIKOBUY">
<rect width="900" height="180" fill="none"/>
<g fill="#050505">
<path d="M18 32h130l20 120H0L18 32z"/>
<path d="M55 33c8-35 75-35 84 0h-30c-5-15-39-15-44 0z" fill="#fff"/>
<path d="M45 90c0-37 27-55 62-55s62 18 62 55c0 40-32 62-62 62S45 130 45 90z" fill="#fff"/>
<path d="M70 75l20-18 17 14h18l17-14 20 18-8 35c-12 23-30 34-48 34s-37-11-49-34z" fill="#fff"/>
<path d="M86 96c14 3 22 10 29 19m30-19c-14 3-22 10-29 19M103 120c13 12 33 12 46 0" fill="none" stroke="#050505" stroke-width="10" stroke-linecap="round"/>
<circle cx="106" cy="99" r="7"/><circle cx="144" cy="99" r="7"/><path d="M125 111l-8 8h16z"/>
<text x="42" y="150" fill="#fff" font-family="Impact,Arial Black,sans-serif" font-size="34" font-weight="900">PIKOBUY</text>
</g>
<text x="205" y="145" fill="#050505" font-family="Impact,Arial Black,sans-serif" font-size="145" font-weight="900" letter-spacing="5" transform="skewX(-6)">PIKOBUY</text>
</svg>