<svg xmlns="http://www.w3.org/2000/svg" viewBox="0 0 520 118" role="img" aria-label="PIKOBUY logo">
  <rect width="520" height="118" fill="none"/>
  <g fill="#050505">
    <path d="M18 23h78l17 79H4L18 23z"/>
    <path d="M40 22c5-24 48-24 54 0H79c-5-10-23-10-28 0H40z" fill="#fff"/>
    <path d="M35 53c0-20 14-33 34-33s34 13 34 33c0 24-18 38-34 38S35 77 35 53z" fill="#fff"/>
    <path d="M46 43l9-9 11 8h7l11-8 9 9-4 21c-5 13-14 20-26 20S41 77 37 64l9-21z" fill="#fff"/>
    <path d="M50 55c8 2 12 5 16 10M88 55c-8 2-12 5-16 10M55 72c9 8 23 8 32 0" fill="none" stroke="#050505" stroke-width="7" stroke-linecap="round"/>
    <circle cx="59" cy="60" r="5"/><circle cx="78" cy="60" r="5"/><path d="M69 68l-6 6h12z"/>
    <text x="24" y="99" fill="#fff" font-family="Impact,Arial Black,sans-serif" font-size="24" font-weight="900" transform="skewX(-6)">PIKOBUY</text>
  </g>
  <text x="126" y="99" fill="#050505" font-family="Impact,Haettenschweiler,Arial Black,sans-serif" font-size="105" font-weight="900" letter-spacing="4" transform="skewX(-5)">PIKOBUY</text>
</svg>
